PathFileType	4	(X/Y/Z)	C:\Users\WrightLab\Desktop\Jo\P5V14.trc
DataRate	CameraRate	NumFrames	NumMarkers	Units	OrigDataRate	OrigDataStartFrame	OrigNumFrames
100.00	100.00	       15	19	mm	100.00	360	       575
Frame#	Time	Headset_Front			Headset_Back			Headset_Left			Headset_Right			Left_Shoulder			Right_Shoulder			Sternum			C7			Left Elbow			Right Elbow			Left Wrist			Right Wrist			Left ASIS			Right ASIS			S2			Left Knee			Right Knee			Left Ankle			Right Ankle			
		X1	Y1	Z1	X2	Y2	Z2	X3	Y3	Z3	X4	Y4	Z4	X5	Y5	Z5	X6	Y6	Z6	X7	Y7	Z7	X8	Y8	Z8	X9	Y9	Z9	X10	Y10	Z10	X11	Y11	Z11	X12	Y12	Z12	X13	Y13	Z13	X14	Y14	Z14	X15	Y15	Z15	X16	Y16	Z16	X17	Y17	Z17	X18	Y18	Z18	X19	Y19	Z19	

360	3.590	-756.10895	1620.37268	1146.54858	-967.59491	611.69806	987.73950							-498.24435	1524.88867	1037.80322	-843.51746	1489.09497	810.52209	-741.99176	1366.71533	1003.26343	-818.91644	1687.26868	1025.90833	-501.02435	1234.34558	1145.65344	-892.87457	1214.99524	713.65240	-611.43250	1065.47375	1287.83203	-971.43768	1053.21936	891.03558	-646.28064	970.08148	1109.48206	-884.63232	997.96564	932.52374	-582.23596	985.03821	792.12561	-625.24445	511.33310	1067.59668				-613.83490	114.78584	841.04041	-914.84229	169.76549	823.29572	
361	3.600	-758.67407	1618.39783	1155.07166	-968.56818	610.62146	1000.13208							-502.11539	1523.68201	1040.65881	-850.56311	1488.76135	820.68152	-745.56903	1366.15979	1011.49713	-822.88068	1685.23779	1035.51953	-506.11557	1235.87878	1152.79919	-902.00055	1215.28430	723.49475	-616.82172	1067.53882	1295.55396	-977.56354	1052.36560	901.92230	-645.74792	967.90137	1113.58630				-588.97162	984.98737	795.06293	-623.64337	511.02255	1067.81055				-614.51611	115.48513	841.26025	-935.92224	164.45164	848.36951	
362	3.610	-761.05713	1616.36841	1163.56860	-969.38367	609.21332	1011.77435							-505.42816	1524.44531	1044.89893	-857.63306	1488.39209	831.13318	-749.47076	1365.86646	1019.90259	-828.45837	1683.90564	1045.54553	-511.06961	1236.67395	1158.45947	-910.06409	1214.39978	734.19446	-621.80927	1069.99133	1302.79175	-983.82153	1051.47424	912.87323	-648.41541	968.70978	1119.34753				-596.53320	985.56885	797.55353	-622.99957	511.07843	1068.24536				-614.73108	117.01038	840.96490	-955.98712	158.61420	875.14026	
363	3.620	-763.49780	1614.42578	1172.11804	-970.13281	606.66608	1022.56000							-508.67767	1524.19849	1051.28406	-864.68329	1487.89478	841.79401	-752.40009	1364.79968	1028.15820	-832.35187	1681.65735	1055.21436	-514.50555	1236.43079	1163.66980	-918.84723	1214.56421	744.74414	-627.02631	1072.13623	1310.16138	-989.85669	1050.61096	924.08411	-650.74249	967.64258	1124.01599				-604.53943	986.53906	800.85675	-622.37225	510.50253	1069.02808				-613.65540	118.45814	840.65515	-973.37183	153.52574	904.00018	
364	3.630	-766.05353	1612.55298	1180.79639	-970.56964	603.89850	1033.03601							-512.10126	1524.25012	1054.75464	-872.00476	1487.60461	852.54163	-755.58380	1363.86499	1036.54138	-837.00793	1679.70129	1065.03882	-519.60590	1237.30396	1169.52417	-926.69293	1214.12427	756.87390	-631.04858	1073.61316	1316.56226	-995.86273	1049.51563	935.32397	-652.37231	966.51453	1128.31189				-612.73987	987.15002	805.43066	-622.51666	510.21658	1069.89722				-614.34723	119.03671	840.81000	-989.13165	150.24753	930.10760	
365	3.640	-768.49365	1610.77234	1189.42468	-969.40460	598.05768	1041.75537							-516.34698	1523.34937	1060.29846	-878.50702	1487.06750	863.37939	-759.09186	1363.05408	1044.95081	-841.66052	1677.47327	1074.86646	-522.60352	1236.80005	1175.86475	-935.04059	1213.75415	768.05133	-635.12000	1075.13098	1323.63391	-1001.68176	1048.37561	946.70856	-653.18097	966.43604	1133.03320				-620.53784	987.18707	808.67212	-623.33301	509.87344	1071.85156				-614.84424	119.77357	841.41510	-1002.88745	146.66333	957.98505	
366	3.650	-770.77209	1608.95129	1198.23328	-969.91376	593.19769	1050.53247							-520.40216	1523.29675	1064.95093	-885.40442	1486.30872	874.33856	-762.45782	1361.88306	1053.39575	-845.93518	1675.19861	1084.62708	-526.30005	1237.47046	1181.10168	-943.21588	1213.33557	779.56818	-637.84399	1075.70776	1330.08679	-1007.47803	1047.15186	958.29358	-655.59106	965.47449	1137.43909				-628.24146	987.96765	813.07953	-624.53217	509.71085	1073.42603				-614.48877	120.24643	841.80640	-1015.97394	144.23877	985.95294	
367	3.660	-773.17133	1607.27112	1207.05725	-971.92273	588.26208	1058.92236							-524.82684	1521.98096	1069.33728	-892.37744	1486.14807	885.51489	-765.90143	1360.94043	1061.89929	-850.17847	1672.80127	1094.45166	-528.60889	1236.69922	1186.06824	-951.32434	1212.82373	791.22906	-641.04193	1076.94910	1337.08618	-1013.08569	1045.97229	970.09387	-657.02667	963.53033	1142.23828				-635.93121	987.88452	817.04590	-625.92535	508.98560	1076.31958				-615.52704	121.22163	843.98700	-1027.31299	142.26682	1015.28845	
368	3.670	-775.51251	1605.66248	1215.95264	-974.82019	583.37909	1066.35181							-528.14642	1520.87732	1075.00867	-899.23413	1485.34412	896.66760	-769.14618	1359.77161	1070.38525	-855.12640	1671.01843	1104.63770	-531.16614	1236.17004	1190.80188	-959.36920	1212.11206	802.88171	-643.62750	1077.79810	1343.21741	-1018.61011	1044.65906	982.04382	-659.10352	962.07104	1145.42322				-643.24670	988.54181	821.14709	-627.57050	508.78961	1079.04761				-616.23499	122.35661	844.17017	-1038.38818	143.15605	1039.32947	
369	3.680	-777.78040	1604.10229	1224.89417	-978.30536	578.45844	1072.97583							-532.17719	1520.59180	1078.47839	-905.81512	1484.59924	908.02808	-772.25153	1358.29187	1078.88916	-859.01227	1668.78345	1114.71265	-533.42737	1235.78845	1195.73975	-967.45624	1211.38562	814.65686	-645.33276	1078.25195	1348.73950	-1023.94159	1043.24866	994.11267	-660.08893	962.33954	1151.92053				-650.45709	988.52802	824.80792	-628.87915	506.58875	1080.72876				-616.31177	124.14855	845.29248	-1046.73047	143.12732	1064.64197	
370	3.690	-779.80127	1602.30811	1233.84192	-981.76825	572.62823	1078.94983							-536.14044	1520.12183	1085.22620	-912.44635	1483.26135	919.24457	-775.50995	1356.98254	1087.52661	-863.39429	1666.88232	1124.96484	-534.55981	1234.49683	1200.44458	-975.13898	1211.01208	824.52283	-646.60895	1078.33813	1354.89587	-1029.38806	1042.07654	1006.44965	-662.01990	960.64453	1157.48669				-657.53705	988.75110	829.86511	-631.43036	506.39465	1084.04126				-617.17065	124.70713	845.71680	-1054.38867	144.26682	1088.60559	
371	3.700	-782.18042	1600.71655	1242.90564	-987.03845	566.45868	1084.39966							-539.95801	1519.36719	1091.81970	-918.16791	1481.85962	930.43927	-778.70081	1355.71692	1096.29468	-867.14130	1664.42542	1135.04797	-537.21588	1234.65063	1206.13660	-983.36591	1209.67651	838.36359	-647.70911	1078.41016	1360.46033	-1034.47302	1040.57043	1018.91632	-664.22253	959.25250	1160.77100				-664.66754	988.29285	835.48938	-633.60736	505.34222	1087.04370				-618.13885	125.82973	845.65210	-1059.76697	145.19139	1112.52686	
372	3.710	-784.42981	1599.17957	1251.89307	-989.76483	559.02301	1089.73425							-543.96167	1518.25305	1094.41931	-924.57007	1480.63293	941.94861	-782.11389	1354.31604	1105.17834	-871.32623	1662.17468	1145.24731	-538.58099	1233.45264	1210.74377	-991.35028	1208.62354	850.40857	-648.89258	1078.72827	1365.77795	-1039.61243	1039.30371	1031.54089	-665.85059	958.65930	1166.58289				-670.97919	988.03632	840.19702	-636.20929	504.16153	1089.92603				-619.01154	128.25241	845.95441	-1063.71350	144.15205	1133.91968	
373	3.720	-786.50867	1597.49414	1260.95154	-993.23975	553.04663	1096.46753							-547.08020	1517.93213	1100.53918	-931.07080	1479.39539	953.57434	-785.27863	1352.67163	1114.11560	-875.20215	1659.81030	1155.38635	-539.65033	1232.24585	1214.48303	-998.78015	1207.95386	859.61652	-648.82953	1078.00842	1370.59924	-1044.57739	1037.81519	1044.36023	-667.68030	956.76276	1172.57642	-929.88043	983.57788	1067.35315	-677.71259	987.28558	846.49158	-639.61700	503.59158	1093.22339				-619.92493	129.03220	845.67542	-1065.49072	144.64487	1150.67847	
374	3.730	-788.60858	1595.59985	1270.04346	-997.89319	550.87756	1107.25598							-550.54602	1516.58691	1106.06555	-936.56531	1477.66418	964.96063	-788.53870	1351.39172	1123.11462	-878.96460	1657.52356	1165.69031	-540.51392	1230.39648	1218.56213	-1006.89661	1206.08997	874.95386	-648.46808	1077.08496	1375.80396	-1049.41638	1036.51270	1057.31189	-670.28625	955.38623	1177.63416	-933.46466	982.01154	1078.51843	-683.84070	986.55994	851.53607	-642.47693	502.72742	1097.45850				-621.10162	130.16431	848.16370	-1066.24158	142.78500	1167.47986	
